HIERARCHY
ROOT hip
{
  OFFSET 0 0 0
  CHANNELS 6 Xposition Yposition Zposition Zrotation Yrotation Xrotation
  JOINT abdomen
  {
    OFFSET 0 20.6881 -0.73152
    CHANNELS 3 Zrotation Xrotation Yrotation
    JOINT chest
    {
      OFFSET 0 11.7043 -0.48768
      CHANNELS 3 Zrotation Xrotation Yrotation
      JOINT neck
      {
        OFFSET 0 22.1894 -2.19456
        CHANNELS 3 Zrotation Xrotation Yrotation
        JOINT head
        {
          OFFSET -0.24384 7.07133 1.2192
          CHANNELS 3 Zrotation Xrotation Yrotation
          JOINT leftEye
          {
            OFFSET 4.14528 8.04674 8.04672
            CHANNELS 3 Zrotation Xrotation Yrotation
            End Site
            {
              OFFSET 1 0 0
            }
          }
          JOINT rightEye
          {
            OFFSET -3.6576 8.04674 8.04672
            CHANNELS 3 Zrotation Xrotation Yrotation
            End Site
            {
              OFFSET 1 0 0
            }
          }
        }
      }
      JOINT rCollar
      {
        OFFSET -2.68224 19.2634 -4.8768
        CHANNELS 3 Zrotation Xrotation Yrotation
        JOINT rShldr
        {
          OFFSET -8.77824 -1.95073 1.46304
          CHANNELS 3 Zrotation Xrotation Yrotation
          JOINT rForeArm
          {
            OFFSET -28.1742 -1.7115 0.48768
            CHANNELS 3 Zrotation Xrotation Yrotation
            JOINT rHand
            {
              OFFSET -22.5879 0.773209 7.07136
              CHANNELS 3 Zrotation Xrotation Yrotation
              JOINT rThumb1
              {
                OFFSET -1.2192 -0.487915 3.41376
                CHANNELS 3 Zrotation Xrotation Yrotation
                JOINT rThumb2
                {
                  OFFSET -3.37035 -0.52449 3.41376
                  CHANNELS 3 Zrotation Xrotation Yrotation
                  End Site
                  {
                    OFFSET -1.78271 -1.18214 1.43049
                  }
                }
              }
              JOINT rIndex1
              {
                OFFSET -7.75947 0.938293 5.60832
                CHANNELS 3 Zrotation Xrotation Yrotation
                JOINT rIndex2
                {
                  OFFSET -2.54057 -0.884171 1.56538
                  CHANNELS 3 Zrotation Xrotation Yrotation
                  End Site
                  {
                    OFFSET -1.62519 -0.234802 1.16502
                  }
                }
              }
              JOINT rMid1
              {
                OFFSET -8.24714 1.18213 3.41376
                CHANNELS 3 Zrotation Xrotation Yrotation
                JOINT rMid2
                {
                  OFFSET -3.10165 -0.590103 1.0647
                  CHANNELS 3 Zrotation Xrotation Yrotation
                  End Site
                  {
                    OFFSET -2.48547 -0.328903 0.83742
                  }
                }
              }
              JOINT rRing1
              {
                OFFSET -8.82822 0.546677 1.51678
                CHANNELS 3 Zrotation Xrotation Yrotation
                JOINT rRing2
                {
                  OFFSET -2.60934 -0.819778 -0.0198488
                  CHANNELS 3 Zrotation Xrotation Yrotation
                  End Site
                  {
                    OFFSET -2.33842 -0.294052 0.168128
                  }
                }
              }
              JOINT rPinky1
              {
                OFFSET -8.27202 -0.0477905 -0.4584
                CHANNELS 3 Zrotation Xrotation Yrotation
                JOINT rPinky2
                {
                  OFFSET -1.82734 -0.647385 -0.700984
                  CHANNELS 3 Zrotation Xrotation Yrotation
                  End Site
                  {
                    OFFSET -1.69225 -0.51767 -0.607171
                  }
                }
              }
            }
          }
        }
      }
      JOINT lCollar
      {
        OFFSET 2.68224 19.2634 -4.8768
        CHANNELS 3 Zrotation Xrotation Yrotation
        JOINT lShldr
        {
          OFFSET 8.77824 -1.95073 1.46304
          CHANNELS 3 Zrotation Xrotation Yrotation
          JOINT lForeArm
          {
            OFFSET 28.1742 -1.7115 0.48768
            CHANNELS 3 Zrotation Xrotation Yrotation
            JOINT lHand
            {
              OFFSET 22.5879 0.773209 7.07136
              CHANNELS 3 Zrotation Xrotation Yrotation
              JOINT lThumb1
              {
                OFFSET 1.2192 -0.487915 3.41376
                CHANNELS 3 Zrotation Xrotation Yrotation
                JOINT lThumb2
                {
                  OFFSET 3.37035 -0.52449 3.41376
                  CHANNELS 3 Zrotation Xrotation Yrotation
                  End Site
                  {
                    OFFSET 1.78271 -1.18214 1.43049
                  }
                }
              }
              JOINT lIndex1
              {
                OFFSET 7.75947 0.938293 5.60832
                CHANNELS 3 Zrotation Xrotation Yrotation
                JOINT lIndex2
                {
                  OFFSET 2.54057 -0.884171 1.56538
                  CHANNELS 3 Zrotation Xrotation Yrotation
                  End Site
                  {
                    OFFSET 1.62519 -0.234802 1.16502
                  }
                }
              }
              JOINT lMid1
              {
                OFFSET 8.24714 1.18213 3.41376
                CHANNELS 3 Zrotation Xrotation Yrotation
                JOINT lMid2
                {
                  OFFSET 3.10165 -0.590103 1.0647
                  CHANNELS 3 Zrotation Xrotation Yrotation
                  End Site
                  {
                    OFFSET 2.48547 -0.328903 0.83742
                  }
                }
              }
              JOINT lRing1
              {
                OFFSET 8.82822 0.546677 1.51678
                CHANNELS 3 Zrotation Xrotation Yrotation
                JOINT lRing2
                {
                  OFFSET 2.60934 -0.819778 -0.0198488
                  CHANNELS 3 Zrotation Xrotation Yrotation
                  End Site
                  {
                    OFFSET 2.33842 -0.294052 0.168128
                  }
                }
              }
              JOINT lPinky1
              {
                OFFSET 8.27202 -0.0477905 -0.4584
                CHANNELS 3 Zrotation Xrotation Yrotation
                JOINT lPinky2
                {
                  OFFSET 1.82734 -0.647385 -0.700984
                  CHANNELS 3 Zrotation Xrotation Yrotation
                  End Site
                  {
                    OFFSET 1.69225 -0.51767 -0.607171
                  }
                }
              }
            }
          }
        }
      }
    }
  }
  JOINT rButtock
  {
    OFFSET -8.77824 4.35084 1.2192
    CHANNELS 3 Zrotation Xrotation Yrotation
    JOINT rThigh
    {
      OFFSET 0 -1.70687 -2.19456
      CHANNELS 3 Zrotation Xrotation Yrotation
      JOINT rShin
      {
        OFFSET 0 -36.8199 0.73152
        CHANNELS 3 Zrotation Xrotation Yrotation
        JOINT rFoot
        {
          OFFSET 0.73152 -45.1104 -5.12064
          CHANNELS 3 Zrotation Xrotation Yrotation
          End Site
          {
            OFFSET -1.1221 -3.69964 12.103
          }
        }
      }
    }
  }
  JOINT lButtock
  {
    OFFSET 8.77824 4.35084 1.2192
    CHANNELS 3 Zrotation Xrotation Yrotation
    JOINT lThigh
    {
      OFFSET 0 -1.70687 -2.19456
      CHANNELS 3 Zrotation Xrotation Yrotation
      JOINT lShin
      {
        OFFSET 0 -36.8199 0.73152
        CHANNELS 3 Zrotation Xrotation Yrotation
        JOINT lFoot
        {
          OFFSET -0.73152 -45.1104 -5.12064
          CHANNELS 3 Zrotation Xrotation Yrotation
          End Site
          {
            OFFSET 1.1221 -3.69964 12.103
          }
        }
      }
    }
  }
}
MOTION
Frames:	8
Frame Time:	0.00833333
-51.6594 -83.1722 15.7372 0.0 0.0 0.0 0.984002 -0.00436268 0.027242 0.271446 -0.00455898 0.0470274 -3.1943e-14 -7.95139e-16 -2.60905e-16 -9.63547e-14 3.18055e-15 -7.60973e-16 -0.0 0.0 0.0 -0.0 0.0 0.0 -1.59543e-14 7.37677e-18 0.0 -3.32907e-13 7.57867e-16 -2.5842e-15 -5.77852e-12 1.73519e-12 -3.18055e-15 -6.60771e-11 -1.69437e-12 -6.01125e-13 -1.55878e-10 8.0128e-14 -1.28176e-12 -2.69203e-10 1.39944e-13 -2.21287e-12 -1.55872e-10 8.18993e-14 -1.28812e-12 7.73091 5.47488 0.417314 -1.5588e-10 7.99114e-14 -1.28176e-12 2.90554 0.965183 0.102902 -1.55872e-10 8.02096e-14 -1.28256e-12 10.2786 0.731801 0.0259123 -1.55882e-10 8.15017e-14 -1.27222e-12 2.22167 -0.733487 -0.20892 -1.59517e-14 8.73565e-18 -2.98177e-16 -3.37205e-13 3.47873e-16 -4.57205e-15 -5.76908e-12 -1.72485e-12 -6.36111e-15 -6.60972e-11 1.76183e-12 -5.91583e-13 -1.55898e-10 7.51056e-14 -1.28494e-12 -2.69221e-10 1.27222e-13 -2.21049e-12 -1.55904e-10 7.83212e-14 -1.2754e-12 -7.73091 5.47488 -0.417314 -1.55897e-10 7.51406e-14 -1.28494e-12 -2.90554 0.965183 -0.102902 -1.55905e-10 7.53394e-14 -1.28176e-12 -10.2786 0.731801 -0.0259123 -1.55888e-10 7.7526e-14 -1.28812e-12 -2.22167 -0.733487 0.20892 -2.03217e-16 0.0 -3.88251e-19 1.25365 -5.45229 -0.109382 3.55497e-05 4.32112 0.0235737 -0.515757 1.13004 0.081872 2.03217e-16 0.0 3.88251e-19 0.254469 -1.91924 0.0128428 0.00924866 -2.07856 0.076375 0.491187 3.99656 -0.137196
-150.445 7.80929 1.66445 41.9716 84.2018 139.913 -0.147398 -4.49808 0.11724 -0.463652 2.81681 0.215159 3.47343 0.738012 4.62614 -9.32055 -2.46283 7.64346 -0.0 0.0 0.0 -0.0 0.0 0.0 7.8102e-15 1.38179e-13 -3.28305e-14 -2.53609 -12.9299 1.45539 0.853111 16.3337 -40.8119 0.178151 -9.38637 -1.25614 3.10145e-11 -1.91895e-10 5.2294e-11 5.26305e-11 -3.26441e-10 9.39484e-11 3.10152e-11 -1.91892e-10 5.22843e-11 7.73091 5.47488 0.417314 3.10117e-11 -1.91893e-10 5.22949e-11 2.90554 0.965183 0.102902 3.10194e-11 -1.91892e-10 5.22968e-11 10.2786 0.731801 0.0259123 3.10114e-11 -1.91891e-10 5.23064e-11 2.22167 -0.733487 -0.20892 7.83179e-15 1.38181e-13 -3.30573e-14 3.36326 -14.2033 -6.10475 27.7658 -25.2159 -13.4077 -0.160013 -8.89344 1.1962 -2.02623e-10 8.63159e-11 -3.09771e-10 -3.4245e-10 1.58701e-10 -5.36573e-10 -2.02628e-10 8.63201e-11 -3.09761e-10 -7.73091 5.47488 -0.417314 -2.02621e-10 8.63168e-11 -3.09772e-10 -2.90554 0.965183 -0.102902 -2.02628e-10 8.63161e-11 -3.09769e-10 -10.2786 0.731801 -0.0259123 -2.02613e-10 8.6319e-11 -3.09777e-10 -2.22167 -0.733487 0.20892 -2.03217e-16 0.0 -3.88251e-19 -13.8114 -11.5573 -5.804 0.0277903 5.8353 0.364838 2.60782 -0.331235 -11.9201 2.03217e-16 0.0 3.88251e-19 9.55122 -7.34627 7.47584 -0.568902 5.66606 -1.12634 -3.23528 1.55449 9.51317
-150.435 7.80713 1.61472 37.4741 83.5915 135.864 -1.33115 -9.23833 0.221352 -1.26292 5.79789 0.39648 7.02071 1.54968 9.51004 -18.5256 -5.04068 15.7337 -0.0 0.0 0.0 -0.0 0.0 0.0 3.33333e-14 2.69684e-13 -7.25813e-14 -4.41761 -26.5665 3.26196 16.7715 6.93333 -82.6486 -0.105116 -19.2918 -2.701 2.51235e-10 -4.34182e-10 1.05303e-10 4.32114e-10 -7.39256e-10 1.89937e-10 2.5123e-10 -4.34178e-10 1.05289e-10 7.73091 5.47488 0.417314 2.51232e-10 -4.34178e-10 1.05305e-10 2.90554 0.965183 0.102902 2.51239e-10 -4.34177e-10 1.0531e-10 10.2786 0.731801 0.0259123 2.51233e-10 -4.34177e-10 1.05318e-10 2.22167 -0.733487 -0.20892 3.33766e-14 2.69686e-13 -7.27303e-14 3.24941 -28.6532 -13.905 39.7178 -46.5209 -37.7472 0.0940863 -18.286 2.56106 -2.52212e-10 1.95089e-10 -6.61498e-10 -4.19574e-10 3.57414e-10 -1.14568e-09 -2.52215e-10 1.95094e-10 -6.61487e-10 -7.73091 5.47488 -0.417314 -2.52209e-10 1.95091e-10 -6.615e-10 -2.90554 0.965183 -0.102902 -2.52215e-10 1.95089e-10 -6.61496e-10 -10.2786 0.731801 -0.0259123 -2.52203e-10 1.95093e-10 -6.61505e-10 -2.22167 -0.733487 0.20892 -2.03217e-16 0.0 -3.88251e-19 -31.0967 -17.7257 -12.1627 0.037669 7.43693 0.72982 5.26399 -1.71366 -24.6192 2.03217e-16 0.0 3.88251e-19 20.9363 -12.7299 15.6254 -0.817448 13.8459 -2.45724 -6.29893 -0.926951 19.7082
-150.474 7.81233 1.58149 36.9831 83.3969 135.729 -2.36676 -13.4854 0.304548 -1.98402 8.4592 0.5567 10.0664 2.1564 13.8873 -26.037 -6.8637 23.084 -0.0 0.0 0.0 -0.0 0.0 0.0 5.53392e-14 4.14523e-13 -9.84916e-14 -5.17095 -38.6748 5.45398 22.4789 -23.563 -102.559 -0.839351 -28.1012 -4.21566 4.04799e-10 -5.75844e-10 1.59445e-10 6.96297e-10 -9.79603e-10 2.86271e-10 4.0479e-10 -5.75839e-10 1.59429e-10 7.73091 5.47488 0.417314 4.04795e-10 -5.75838e-10 1.59448e-10 2.90554 0.965183 0.102902 4.04803e-10 -5.75837e-10 1.59456e-10 10.2786 0.731801 0.0259123 4.04798e-10 -5.75837e-10 1.59464e-10 2.22167 -0.733487 -0.20892 5.53988e-14 4.14525e-13 -9.85754e-14 -1.18984 -40.3619 -23.5877 31.2191 -51.8613 -73.5922 0.745479 -26.6309 3.96686 -2.96073e-10 2.58797e-10 -9.26744e-10 -4.88908e-10 4.75848e-10 -1.6053e-09 -2.96074e-10 2.58804e-10 -9.26732e-10 -7.73091 5.47488 -0.417314 -2.96068e-10 2.588e-10 -9.26747e-10 -2.90554 0.965183 -0.102902 -2.96073e-10 2.58798e-10 -9.26743e-10 -10.2786 0.731801 -0.0259123 -2.96064e-10 2.58802e-10 -9.26753e-10 -2.22167 -0.733487 0.20892 -2.03217e-16 0.0 -3.88251e-19 -47.7917 -22.8546 -18.3235 0.0285609 8.86255 1.05442 7.13829 -2.65216 -35.9681 2.03217e-16 0.0 3.88251e-19 32.4255 -16.9789 23.2874 -0.693913 21.1168 -3.76855 -8.31349 -2.86041 28.8419
-150.546 7.82376 1.5466 37.8877 83.3908 136.849 -3.06834 -16.4995 0.327476 -2.47311 10.3214 0.6591 12.142 2.31377 16.9872 -30.7958 -7.35019 28.4084 -0.0 0.0 0.0 -0.0 0.0 0.0 6.85518e-14 5.927e-13 -8.9801e-14 -4.91737 -47.0661 7.63487 23.2375 -50.3211 -105.613 -1.69016 -34.2249 -5.4859 3.9172e-10 -4.65942e-10 2.16424e-10 6.72229e-10 -7.88781e-10 3.83469e-10 3.91711e-10 -4.65939e-10 2.16405e-10 7.73091 5.47488 0.417314 3.91717e-10 -4.65936e-10 2.16427e-10 2.90554 0.965183 0.102902 3.91726e-10 -4.65935e-10 2.16434e-10 10.2786 0.731801 0.0259123 3.91719e-10 -4.65935e-10 2.16443e-10 2.22167 -0.733487 -0.20892 6.86142e-14 5.92703e-13 -8.98507e-14 -7.70658 -47.298 -32.9318 26.3596 -45.5424 -94.5829 1.48788 -32.4033 5.11766 -3.25611e-10 2.09843e-10 -9.75791e-10 -5.38768e-10 3.93584e-10 -1.69118e-09 -3.25611e-10 2.0985e-10 -9.75778e-10 -7.73091 5.47488 -0.417314 -3.25606e-10 2.09847e-10 -9.75794e-10 -2.90554 0.965183 -0.102902 -3.25611e-10 2.09844e-10 -9.7579e-10 -10.2786 0.731801 -0.0259123 -3.25603e-10 2.09848e-10 -9.75801e-10 -2.22167 -0.733487 0.20892 -2.03217e-16 0.0 -3.88251e-19 -60.2597 -26.2048 -23.0117 0.0113415 9.84917 1.27227 8.21256 -3.08543 -43.8907 2.03217e-16 0.0 3.88251e-19 41.1582 -19.5241 28.9245 -0.386594 26.153 -4.79764 -9.35311 -3.95805 35.2496
-150.56 7.79826 1.56475 40.0192 83.5386 139.128 -3.296 -17.7881 0.256952 -2.61946 11.0709 0.675047 12.9795 1.79977 18.3098 -32.2483 -6.14915 30.873 -0.0 0.0 0.0 -0.0 0.0 0.0 7.1007e-14 8.87494e-13 -2.07396e-14 -4.64439 -50.3698 8.74631 24.9484 -61.2074 -103.161 -2.11982 -36.6389 -6.05577 1.02353e-10 8.30969e-11 2.99632e-10 1.69746e-10 1.5556e-10 5.19104e-10 1.0235e-10 8.30938e-11 2.9961e-10 7.73091 5.47488 0.417314 1.02352e-10 8.30989e-11 2.99634e-10 2.90554 0.965183 0.102902 1.02364e-10 8.30961e-11 2.99637e-10 10.2786 0.731801 0.0259123 1.0235e-10 8.30995e-11 2.99649e-10 2.22167 -0.733487 -0.20892 7.10511e-14 8.87497e-13 -2.08033e-14 -11.2983 -49.639 -37.3532 26.4329 -41.6366 -100.093 1.85276 -34.63 5.6163 -3.43366e-10 -4.43372e-11 -6.76139e-10 -5.76851e-10 -5.29045e-11 -1.17454e-09 -3.43366e-10 -4.43303e-11 -6.76125e-10 -7.73091 5.47488 -0.417314 -3.43361e-10 -4.43345e-11 -6.76141e-10 -2.90554 0.965183 -0.102902 -3.43367e-10 -4.4337e-11 -6.76137e-10 -10.2786 0.731801 -0.0259123 -3.43358e-10 -4.43328e-11 -6.76147e-10 -2.22167 -0.733487 0.20892 -2.03217e-16 0.0 -3.88251e-19 -65.5206 -27.6541 -25.0371 0.000176497 10.2118 1.33372 8.5728 -3.23444 -47.0043 2.03217e-16 0.0 3.88251e-19 44.7486 -20.4664 31.2877 -0.210873 28.0933 -5.2408 -9.67657 -4.30309 37.7811
-150.496 7.75597 1.59872 43.449 83.8186 142.665 -3.18775 -17.844 0.118969 -2.51768 11.0254 0.628413 12.9434 0.817202 18.3662 -31.4275 -3.83952 31.3283 -0.0 0.0 0.0 -0.0 0.0 0.0 6.57044e-14 1.26226e-12 9.08757e-14 -4.87107 -50.0825 8.64821 24.6513 -59.9856 -103.575 -2.07561 -36.4182 -6.00074 -3.82316e-10 9.41664e-10 4.00514e-10 -6.70896e-10 1.63099e-09 6.80422e-10 -3.82309e-10 9.41651e-10 4.0049e-10 7.73091 5.47488 0.417314 -3.82315e-10 9.4166e-10 4.00516e-10 2.90554 0.965183 0.102902 -3.82297e-10 9.41652e-10 4.00511e-10 10.2786 0.731801 0.0259123 -3.82322e-10 9.41661e-10 4.00527e-10 2.22167 -0.733487 -0.20892 6.57153e-14 1.26226e-12 9.07638e-14 -11.0807 -49.4665 -36.8463 26.3644 -42.1133 -99.5983 1.80412 -34.3355 5.54927 -3.52311e-10 -4.42846e-10 -1.29608e-10 -6.05783e-10 -7.5559e-10 -2.31303e-10 -3.52312e-10 -4.4284e-10 -1.29593e-10 -7.73091 5.47488 -0.417314 -3.52308e-10 -4.42845e-10 -1.29607e-10 -2.90554 0.965183 -0.102902 -3.52314e-10 -4.42846e-10 -1.29605e-10 -10.2786 0.731801 -0.0259123 -3.52304e-10 -4.42843e-10 -1.29612e-10 -2.22167 -0.733487 0.20892 -2.03217e-16 0.0 -3.88251e-19 -65.3088 -27.9238 -24.9938 -0.00291459 10.1294 1.28284 8.50054 -3.30373 -46.68 2.03217e-16 0.0 3.88251e-19 44.3733 -20.4984 31.2051 -0.23369 27.8316 -5.20306 -9.62023 -4.23286 37.5308
-150.446 7.74997 1.62613 43.6834 83.7366 143.099 -2.97852 -17.4063 -0.0393754 -2.31973 10.6524 0.560074 12.5323 -0.224912 17.8954 -29.715 -1.35897 30.9471 -0.0 0.0 0.0 -0.0 0.0 0.0 5.48136e-14 1.55709e-12 2.00425e-13 -5.26949 -48.3423 8.06309 23.6099 -53.9193 -105.075 -1.83993 -35.1355 -5.69335 -8.76322e-10 1.78493e-09 4.72852e-10 -1.52702e-09 3.07905e-09 7.92449e-10 -8.76305e-10 1.78491e-09 4.72827e-10 7.73091 5.47488 0.417314 -8.76318e-10 1.78492e-09 4.72853e-10 2.90554 0.965183 0.102902 -8.76296e-10 1.78491e-09 4.72841e-10 10.2786 0.731801 0.0259123 -8.76331e-10 1.78492e-09 4.72861e-10 2.22167 -0.733487 -0.20892 5.47887e-14 1.5571e-12 2.00259e-13 -9.30556 -48.2583 -34.3561 26.2401 -44.3516 -96.6988 1.58853 -33.004 5.25146 -3.44503e-10 -8.23088e-10 4.42045e-10 -6.06279e-10 -1.42756e-09 7.55692e-10 -3.44505e-10 -8.23082e-10 4.4206e-10 -7.73091 5.47488 -0.417314 -3.44501e-10 -8.23087e-10 4.42047e-10 -2.90554 0.965183 -0.102902 -3.44508e-10 -8.23088e-10 4.42049e-10 -10.2786 0.731801 -0.0259123 -3.44496e-10 -8.23085e-10 4.42043e-10 -2.22167 -0.733487 0.20892 -2.03217e-16 0.0 -3.88251e-19 -62.8858 -27.7088 -24.1234 -0.00300665 9.88488 1.19295 8.26463 -3.34546 -44.9662 2.03217e-16 0.0 3.88251e-19 42.3825 -20.1812 30.1282 -0.335561 26.684 -4.97175 -9.41129 -3.99525 36.1716
